<svg width="16" height="18" viewBox="0 0 16 18" fill="none" xmlns="http://www.w3.org/2000/svg">
<path d="M14.075 9.825C13.7994 9.52825 13.6396 9.14226 13.625 8.7375V7.125C13.625 4.0875 11.6 1.5 8 1.5C4.4 1.5 2.375 4.0125 2.375 7.125V9C2.36806 9.23738 2.27472 9.46406 2.1125 9.6375L0.725 11.025C0.583689 11.1635 0.502818 11.3522 0.5 11.55V14.25C0.5 14.4489 0.579018 14.6397 0.71967 14.7803C0.860322 14.921 1.05109 15 1.25 15H5.4125C5.51685 15.6107 5.83382 16.1648 6.30736 16.5643C6.78089 16.9638 7.38046 17.1829 8 17.1829C8.61954 17.1829 9.21911 16.9638 9.69264 16.5643C10.1662 16.1648 10.4832 15.6107 10.5875 15H14.75C14.9489 15 15.1397 14.921 15.2803 14.7803C15.421 14.6397 15.5 14.4489 15.5 14.25V11.55C15.4972 11.3522 15.4163 11.1635 15.275 11.025L14.075 9.825Z" fill="#0095FF"/>
<path d="M1.62514 7.12501C1.62618 6.15783 1.84598 5.20342 2.26809 4.33321C2.69021 3.463 3.3037 2.69955 4.06264 2.10001C4.22177 1.98067 4.32698 1.80299 4.35511 1.60608C4.38324 1.40917 4.33199 1.20914 4.21264 1.05001C4.08782 0.896608 3.90745 0.798717 3.7108 0.777647C3.51415 0.756577 3.31714 0.814036 3.16264 0.937515C2.21187 1.6633 1.44262 2.59997 0.915518 3.6737C0.388412 4.74743 0.117848 5.9289 0.125144 7.12501C0.125144 7.32393 0.204161 7.51469 0.344814 7.65534C0.485466 7.796 0.676231 7.87501 0.875144 7.87501C1.07406 7.87501 1.26482 7.796 1.40547 7.65534C1.54613 7.51469 1.62514 7.32393 1.62514 7.12501Z" fill="#0095FF"/>
<path d="M12.8377 0.900003C12.6786 0.780656 12.4785 0.72941 12.2816 0.757541C12.0847 0.785671 11.907 0.890873 11.7877 1.05C11.7286 1.1288 11.6856 1.21846 11.6612 1.31387C11.6367 1.40928 11.6313 1.50857 11.6452 1.60607C11.6592 1.70357 11.6922 1.79737 11.7423 1.88212C11.7925 1.96687 11.8589 2.04091 11.9377 2.1C12.7008 2.69577 13.3173 3.45845 13.7398 4.32952C14.1624 5.20058 14.3797 6.15688 14.3752 7.125C14.3752 7.32391 14.4542 7.51468 14.5949 7.65533C14.7355 7.79598 14.9263 7.875 15.1252 7.875C15.3241 7.875 15.5149 7.79598 15.6555 7.65533C15.7962 7.51468 15.8752 7.32391 15.8752 7.125C15.8797 5.92403 15.6081 4.73808 15.0814 3.65874C14.5548 2.5794 13.7871 1.63553 12.8377 0.900003Z" fill="#0095FF"/>
</svg>
