<svg width="18" height="18" viewBox="0 0 18 18" fill="none" xmlns="http://www.w3.org/2000/svg">
<g clip-path="url(#clip0_33_79)">
<path d="M15.075 9.825C14.7994 9.52825 14.6396 9.14226 14.625 8.7375V7.125C14.625 4.0875 12.6 1.5 9 1.5C5.4 1.5 3.375 4.0125 3.375 7.125V9C3.36806 9.23738 3.27472 9.46406 3.1125 9.6375L1.725 11.025C1.58369 11.1635 1.50282 11.3522 1.5 11.55V14.25C1.5 14.4489 1.57902 14.6397 1.71967 14.7803C1.86032 14.921 2.05109 15 2.25 15H6.4125C6.51685 15.6107 6.83382 16.1648 7.30736 16.5643C7.78089 16.9638 8.38046 17.1829 9 17.1829C9.61954 17.1829 10.2191 16.9638 10.6926 16.5643C11.1662 16.1648 11.4832 15.6107 11.5875 15H15.75C15.9489 15 16.1397 14.921 16.2803 14.7803C16.421 14.6397 16.5 14.4489 16.5 14.25V11.55C16.4972 11.3522 16.4163 11.1635 16.275 11.025L15.075 9.825Z" fill="#0095FF"/>
<path d="M2.62514 7.12501C2.62618 6.15783 2.84598 5.20342 3.26809 4.33321C3.69021 3.463 4.3037 2.69955 5.06264 2.10001C5.22177 1.98067 5.32698 1.80299 5.35511 1.60608C5.38324 1.40917 5.33199 1.20914 5.21264 1.05001C5.08782 0.896608 4.90745 0.798717 4.7108 0.777647C4.51415 0.756577 4.31714 0.814036 4.16264 0.937515C3.21187 1.6633 2.44262 2.59997 1.91552 3.6737C1.38841 4.74743 1.11785 5.9289 1.12514 7.12501C1.12514 7.32393 1.20416 7.51469 1.34481 7.65534C1.48547 7.796 1.67623 7.87501 1.87514 7.87501C2.07406 7.87501 2.26482 7.796 2.40547 7.65534C2.54613 7.51469 2.62514 7.32393 2.62514 7.12501Z" fill="#0095FF"/>
<path d="M13.8377 0.900003C13.6786 0.780656 13.4785 0.72941 13.2816 0.757541C13.0847 0.785671 12.907 0.890873 12.7877 1.05C12.7286 1.1288 12.6856 1.21846 12.6612 1.31387C12.6367 1.40928 12.6313 1.50857 12.6452 1.60607C12.6592 1.70357 12.6922 1.79737 12.7423 1.88212C12.7925 1.96687 12.8589 2.04091 12.9377 2.1C13.7008 2.69577 14.3173 3.45845 14.7398 4.32952C15.1624 5.20058 15.3797 6.15688 15.3752 7.125C15.3752 7.32391 15.4542 7.51468 15.5949 7.65533C15.7355 7.79598 15.9263 7.875 16.1252 7.875C16.3241 7.875 16.5149 7.79598 16.6555 7.65533C16.7962 7.51468 16.8752 7.32391 16.8752 7.125C16.8797 5.92403 16.6081 4.73808 16.0814 3.65874C15.5548 2.5794 14.7871 1.63553 13.8377 0.900003Z" fill="#0095FF"/>
</g>
<defs>
<clipPath id="clip0_33_79">
<rect width="18" height="18" fill="white"/>
</clipPath>
</defs>
</svg>
